# xmcd CD database file generated by OrangeCD 6.3
#
# Track frame offsets:
#	150
#	13738
#	25445
#	40962
#	53421
#	64713
#	75333
#	97707
#	110260
#	129114
#	145920
#
# Disc length: 2150 seconds
#
# Revision: 0
# Processed by: cddbd v1.5.2PL0 Copyright (c) Steve Scherf et al.
# Submitted via: OrangeCD 6.3
#
DISCID=7b08640b
DTITLE=Steve Wariner - My Tribute To Chet Atkins
DYEAR=2009
DGENRE=
TTITLE0=Leavin' Luttrell
TTITLE1=John Henry
TTITLE2=(Back Home Again In) Indiana
TTITLE3=Leona
TTITLE4=Blue Angel
TTITLE5=Reeding Out Loud
TTITLE6=Producer's Medley
TTITLE7=Tuned In
TTITLE8=6120
TTITLE9=Chet's Guitar
TTITLE10=Silent Strings
EXTD=
EXTT0=
EXTT1=
EXTT2=
EXTT3=
EXTT4=
EXTT5=
EXTT6=
EXTT7=
EXTT8=
EXTT9=
EXTT10=
PLAYORDER=
